<svg xmlns="http://www.w3.org/2000/svg" width="155" height="120" viewBox="0 0 155 120">
  <g id="Layer_2" data-name="Layer 2" transform="translate(0.001 31.84)">
    <g id="Layer_16" data-name="Layer 16" transform="translate(-0.001 -31.84)">
      <text id="Project" transform="translate(0 42)" fill="#333" font-size="41" font-family="CeraGR-Black, CeraGR ☞" font-weight="800"><tspan x="0" y="0">P</tspan><tspan y="0" letter-spacing="-0.01em">r</tspan><tspan y="0">oject</tspan></text>
      <text id="Volos" transform="translate(40.318 92.014)" fill="#333" font-size="41" font-family="CeraGR-Black, CeraGR ☞" font-weight="800"><tspan x="0" y="0" letter-spacing="-0.06em">V</tspan><tspan y="0">olos</tspan></text>
      <line id="Line_3" data-name="Line 3" x2="155" transform="translate(0 109.31)" fill="none" stroke="#f4426c" stroke-miterlimit="10" stroke-width="1"/>
      <path id="Path_51" data-name="Path 51" d="M5.019,234.852a4.674,4.674,0,0,1,3.5,1.43,5.142,5.142,0,0,1,0,7.024,4.707,4.707,0,0,1-3.5,1.408,4.9,4.9,0,0,1-3.612-1.408,5.085,5.085,0,0,1,0-7.024,4.854,4.854,0,0,1,3.612-1.43Zm0,13.207a4.666,4.666,0,0,1,3.5,1.433,5.14,5.14,0,0,1,0,7.022,4.718,4.718,0,0,1-3.5,1.408,4.9,4.9,0,0,1-3.612-1.408,5.08,5.08,0,0,1,0-7.022,4.845,4.845,0,0,1,3.612-1.433Z" transform="translate(0.001 -161.007)" fill="#f4426c"/>
      <path id="Path_52" data-name="Path 52" d="M1.365,386.45v3.238H3.084v.248H1.09V386.45Z" transform="translate(-0.793 -270.941)"/>
      <path id="Path_53" data-name="Path 53" d="M11.284,389.679a1.329,1.329,0,1,1,0,2.658,1.261,1.261,0,0,1-.94-.392,1.362,1.362,0,0,1,0-1.888A1.278,1.278,0,0,1,11.284,389.679Zm0,.251a1,1,0,0,0-.749.311,1.07,1.07,0,0,0-.289.771,1.057,1.057,0,0,0,.3.768,1.046,1.046,0,0,0,1.49,0,1.122,1.122,0,0,0,0-1.536A1,1,0,0,0,11.284,389.929Z" transform="translate(-7.25 -273.29)"/>
      <path id="Path_54" data-name="Path 54" d="M23.589,389.814l.163.016v.232h-.131a.907.907,0,0,0-.607.223.741.741,0,0,0-.272.6v1.5H22.47V389.83h.256v.428A.934.934,0,0,1,23.589,389.814Z" transform="translate(-16.35 -273.387)"/>
      <path id="Path_55" data-name="Path 55" d="M30.849,390.778a1.2,1.2,0,0,1-.019.256H28.7a1.06,1.06,0,0,0,.313.733,1.01,1.01,0,0,0,.733.272,1.07,1.07,0,0,0,.85-.4l.169.174a1.286,1.286,0,0,1-1.024.477,1.339,1.339,0,0,1-.945-2.269,1.229,1.229,0,0,1,.915-.389,1.13,1.13,0,0,1,.817.316A1.089,1.089,0,0,1,30.849,390.778Zm-1.149-.891a.932.932,0,0,0-.662.256,1.049,1.049,0,0,0-.327.651h1.866a.817.817,0,0,0-.245-.659A.874.874,0,0,0,29.7,389.887Z" transform="translate(-20.678 -273.253)"/>
      <path id="Path_56" data-name="Path 56" d="M42.876,389.677a.855.855,0,0,1,.67.272,1.062,1.062,0,0,1,.24.722v1.612h-.272v-1.591a.831.831,0,0,0-.18-.545.613.613,0,0,0-.5-.21.716.716,0,0,0-.741.722v1.634h-.272V390.7a.817.817,0,0,0-.182-.545.616.616,0,0,0-.5-.21.705.705,0,0,0-.545.215.771.771,0,0,0-.207.545V392.3H40.12v-2.552h.256v.332a.9.9,0,0,1,.787-.387.8.8,0,0,1,.831.482.976.976,0,0,1,.354-.36,1,1,0,0,1,.528-.139Z" transform="translate(-29.192 -273.288)"/>
      <path id="Path_57" data-name="Path 57" d="M62.16,385.487a.215.215,0,0,1,.166-.068.221.221,0,0,1,.166.068.237.237,0,0,1,0,.327.221.221,0,0,1-.166.068.215.215,0,0,1-.166-.068A.232.232,0,0,1,62.16,385.487Zm.3,1.147v2.552h-.272v-2.552Z" transform="translate(-45.18 -270.191)"/>
      <path id="Path_58" data-name="Path 58" d="M68.3,389.679a1.2,1.2,0,0,1,.9.384,1.4,1.4,0,0,1,0,1.887,1.188,1.188,0,0,1-.9.387,1.308,1.308,0,0,1-.6-.144,1.048,1.048,0,0,1-.43-.4v1.444H67v-3.5h.272v.512a1.032,1.032,0,0,1,.425-.411A1.26,1.26,0,0,1,68.3,389.679Zm-.025,2.41a.951.951,0,0,0,.73-.31,1.073,1.073,0,0,0,.289-.768,1.089,1.089,0,0,0-.289-.773.948.948,0,0,0-.73-.308,1,1,0,0,0-.711.272,1.253,1.253,0,0,0,0,1.612A1,1,0,0,0,68.28,392.09Z" transform="translate(-48.751 -273.29)"/>
      <path id="Path_59" data-name="Path 59" d="M79.417,389.68a1,1,0,0,1,.817.409l-.174.169a.872.872,0,0,0-.643-.327.632.632,0,0,0-.37.1.349.349,0,0,0-.15.3.319.319,0,0,0,.112.256,1.543,1.543,0,0,0,.37.2l.237.106a1.618,1.618,0,0,1,.5.305.583.583,0,0,1,.166.428.618.618,0,0,1-.248.523.991.991,0,0,1-.6.185,1.138,1.138,0,0,1-.975-.528l.182-.174a1.016,1.016,0,0,0,.784.455.679.679,0,0,0,.409-.117.381.381,0,0,0,.163-.332.411.411,0,0,0-.035-.177.332.332,0,0,0-.125-.139,1.612,1.612,0,0,0-.155-.1,2.264,2.264,0,0,0-.207-.1l-.234-.1a1.578,1.578,0,0,1-.466-.272.512.512,0,0,1-.161-.4.58.58,0,0,1,.237-.488A.926.926,0,0,1,79.417,389.68Z" transform="translate(-57.083 -273.291)"/>
      <path id="Path_60" data-name="Path 60" d="M90.094,389.88v1.585a.986.986,0,0,1-.272.738,1.054,1.054,0,0,1-1.433,0,.994.994,0,0,1-.272-.738V389.88h.272v1.6a.741.741,0,0,0,.21.545.725.725,0,0,0,.528.207.708.708,0,0,0,.523-.207.733.733,0,0,0,.212-.545v-1.6Z" transform="translate(-64.115 -273.437)"/>
      <path id="Path_61" data-name="Path 61" d="M101.5,389.677a.847.847,0,0,1,.667.272,1.051,1.051,0,0,1,.242.722v1.612h-.272v-1.591a.831.831,0,0,0-.18-.545.615.615,0,0,0-.5-.21.714.714,0,0,0-.738.722v1.634h-.272V390.7a.833.833,0,0,0-.183-.545.624.624,0,0,0-.5-.21.7.7,0,0,0-.545.215.76.76,0,0,0-.207.545V392.3H98.74v-2.552h.253v.332a.9.9,0,0,1,.787-.387.8.8,0,0,1,.817.5.953.953,0,0,1,.354-.36A1,1,0,0,1,101.5,389.677Z" transform="translate(-71.846 -273.288)"/>
      <path id="Path_62" data-name="Path 62" d="M122.661,384.7h.272v3.963h-.253v-.512a1.048,1.048,0,0,1-.425.411,1.3,1.3,0,0,1-.616.153,1.2,1.2,0,0,1-.912-.392,1.405,1.405,0,0,1,0-1.887,1.2,1.2,0,0,1,.907-.387,1.272,1.272,0,0,1,.6.147,1.019,1.019,0,0,1,.425.4Zm-1.005,3.767a1.008,1.008,0,0,0,.711-.272,1.043,1.043,0,0,0,.294-.8,1.059,1.059,0,0,0-.294-.817,1,1,0,0,0-.711-.272.948.948,0,0,0-.73.308,1.174,1.174,0,0,0,0,1.542A.95.95,0,0,0,121.656,388.467Z" transform="translate(-87.382 -269.667)"/>
      <path id="Path_63" data-name="Path 63" d="M133.984,389.679a1.316,1.316,0,0,1,1.321,1.326,1.288,1.288,0,0,1-.387.945,1.329,1.329,0,0,1-1.874,0,1.362,1.362,0,0,1,0-1.888A1.278,1.278,0,0,1,133.984,389.679Zm0,.251a1,1,0,0,0-.749.31,1.07,1.07,0,0,0-.3.771,1.057,1.057,0,0,0,.3.768,1.05,1.05,0,0,0,1.795-.765,1.065,1.065,0,0,0-.3-.771A.994.994,0,0,0,133.984,389.93Z" transform="translate(-96.313 -273.29)"/>
      <path id="Path_64" data-name="Path 64" d="M145.492,384.7v3.963h-.272V384.7Z" transform="translate(-105.432 -269.667)"/>
      <path id="Path_65" data-name="Path 65" d="M150.457,389.68a1.329,1.329,0,1,1,0,2.658,1.261,1.261,0,0,1-.934-.387,1.329,1.329,0,0,1,.94-2.272Zm0,.251a1,1,0,0,0-.749.311,1.073,1.073,0,0,0-.3.771,1.057,1.057,0,0,0,.3.768,1.046,1.046,0,0,0,1.49,0,1.122,1.122,0,0,0,0-1.536A1,1,0,0,0,150.457,389.93Z" transform="translate(-108.267 -273.291)"/>
      <path id="Path_66" data-name="Path 66" d="M162.739,389.814l.163.016v.232h-.131a.9.9,0,0,0-.607.223.741.741,0,0,0-.272.6v1.5h-.272V389.83h.256v.428A.934.934,0,0,1,162.739,389.814Z" transform="translate(-117.336 -273.387)"/>
      <path id="Path_67" data-name="Path 67" d="M173.983,389.68a1,1,0,0,1,.817.409l-.174.169a.877.877,0,0,0-.667-.327.643.643,0,0,0-.37.1.346.346,0,0,0-.147.3.319.319,0,0,0,.112.256,1.49,1.49,0,0,0,.37.2l.237.106a1.57,1.57,0,0,1,.493.305.572.572,0,0,1,.166.428.61.61,0,0,1-.248.523.983.983,0,0,1-.6.185,1.144,1.144,0,0,1-.97-.528l.185-.174a1.01,1.01,0,0,0,.8.455.676.676,0,0,0,.406-.117.384.384,0,0,0,.166-.332.455.455,0,0,0-.035-.177.34.34,0,0,0-.128-.139,1.162,1.162,0,0,0-.155-.1,1.993,1.993,0,0,0-.207-.1l-.232-.1a1.634,1.634,0,0,1-.468-.272.52.52,0,0,1-.161-.4.578.578,0,0,1,.24-.488A.92.92,0,0,1,173.983,389.68Z" transform="translate(-125.597 -273.291)"/>
      <path id="Path_68" data-name="Path 68" d="M182.435,385.488a.221.221,0,0,1,.166-.068.226.226,0,0,1,.169.068.237.237,0,0,1,0,.327.226.226,0,0,1-.169.068.221.221,0,0,1-.166-.068A.237.237,0,0,1,182.435,385.488Zm.3,1.147v2.552h-.272v-2.552Z" transform="translate(-132.403 -270.191)"/>
      <path id="Path_69" data-name="Path 69" d="M187.326,390.306a1.636,1.636,0,0,0,.354-.044v.234a1.543,1.543,0,0,1-.395.052.844.844,0,0,1-.572-.185.727.727,0,0,1-.21-.58v-1.6h-.444v-.242h.444v-.724h.272v.724h.817v.242h-.817v1.585C186.771,390.129,186.956,390.306,187.326,390.306Z" transform="translate(-135.079 -271.501)"/>
      <path id="Path_70" data-name="Path 70" d="M200.072,389.677a.948.948,0,0,1,.695.259,1.008,1.008,0,0,1,.272.746v1.6h-.253v-.4a1.152,1.152,0,0,1-1.536.272.635.635,0,0,1,0-1.005,1.019,1.019,0,0,1,.643-.185h.888v-.291a.752.752,0,0,0-.191-.545.694.694,0,0,0-.512-.188.97.97,0,0,0-.776.428l-.185-.15A1.144,1.144,0,0,1,200.072,389.677Zm-.185,2.427a.9.9,0,0,0,.616-.223.692.692,0,0,0,.256-.545v-.144H199.9a.816.816,0,0,0-.474.114.368.368,0,0,0-.166.324.4.4,0,0,0,.185.354A.792.792,0,0,0,199.887,392.1Z" transform="translate(-144.475 -273.289)"/>
      <path id="Path_71" data-name="Path 71" d="M212.536,389.677a.855.855,0,0,1,.67.272,1.062,1.062,0,0,1,.24.722v1.612h-.272v-1.591a.83.83,0,0,0-.18-.545.613.613,0,0,0-.5-.21.716.716,0,0,0-.741.722v1.634h-.272V390.7a.817.817,0,0,0-.182-.545.616.616,0,0,0-.5-.21.706.706,0,0,0-.545.215.771.771,0,0,0-.207.545V392.3h-.272v-2.552h.256v.332a.9.9,0,0,1,.787-.387.8.8,0,0,1,.8.5.975.975,0,0,1,.354-.36A1,1,0,0,1,212.536,389.677Z" transform="translate(-152.295 -273.288)"/>
      <path id="Path_72" data-name="Path 72" d="M228.4,390.778a1.165,1.165,0,0,1-.022.256h-2.13a1.051,1.051,0,0,0,.316.733,1,1,0,0,0,.73.272,1.089,1.089,0,0,0,.853-.4l.169.174a1.291,1.291,0,0,1-1.027.477,1.339,1.339,0,0,1-.945-2.269,1.229,1.229,0,0,1,.915-.39,1.128,1.128,0,0,1,.817.316A1.09,1.09,0,0,1,228.4,390.778Zm-1.152-.891a.934.934,0,0,0-.662.256,1.049,1.049,0,0,0-.327.651h1.866a.817.817,0,0,0-.242-.659A.883.883,0,0,0,227.249,389.887Z" transform="translate(-164.051 -273.253)"/>
      <path id="Path_73" data-name="Path 73" d="M237.8,390.306a1.636,1.636,0,0,0,.354-.044v.234a1.544,1.544,0,0,1-.395.052.844.844,0,0,1-.572-.185.727.727,0,0,1-.212-.58v-1.6h-.441v-.242h.441v-.724h.272v.724h.817v.242h-.817v1.585C237.241,390.129,237.426,390.306,237.8,390.306Z" transform="translate(-171.721 -271.501)"/>
      <path id="Path_74" data-name="Path 74" d="M245.287,397.79l-.191,1.348h-.226l.09-1.348Z" transform="translate(-177.779 -279.192)"/>
      <path id="Path_75" data-name="Path 75" d="M256.111,389.679a1.22,1.22,0,0,1,1.03.523l-.191.155a1.011,1.011,0,0,0-.839-.428,1,1,0,0,0-.746.311,1.054,1.054,0,0,0-.3.765,1.068,1.068,0,0,0,.3.771.98.98,0,0,0,.744.313,1.024,1.024,0,0,0,.844-.428l.191.152a1.223,1.223,0,0,1-1.035.523,1.256,1.256,0,0,1-.934-.389,1.362,1.362,0,0,1,0-1.882A1.28,1.28,0,0,1,256.111,389.679Z" transform="translate(-184.979 -273.29)"/>
      <path id="Path_76" data-name="Path 76" d="M266.622,389.679a1.329,1.329,0,1,1,0,2.658,1.253,1.253,0,0,1-.937-.392,1.362,1.362,0,0,1,0-1.888A1.266,1.266,0,0,1,266.622,389.679Zm0,.251a1,1,0,0,0-.749.31,1.07,1.07,0,0,0-.3.771,1.056,1.056,0,0,0,.3.768,1.05,1.05,0,0,0,1.795-.765,1.065,1.065,0,0,0-.3-.771A.994.994,0,0,0,266.622,389.929Z" transform="translate(-192.608 -273.29)"/>
      <path id="Path_77" data-name="Path 77" d="M278.9,389.674a.882.882,0,0,1,.686.272,1.03,1.03,0,0,1,.248.719v1.612h-.272v-1.6a.787.787,0,0,0-.193-.545.665.665,0,0,0-.52-.21.733.733,0,0,0-.76.76v1.6h-.272v-2.552h.253v.343a.934.934,0,0,1,.831-.4Z" transform="translate(-201.696 -273.285)"/>
      <path id="Path_78" data-name="Path 78" d="M288.788,389.68a.991.991,0,0,1,.817.409l-.174.169a.869.869,0,0,0-.665-.327.637.637,0,0,0-.36.109.346.346,0,0,0-.147.3.31.31,0,0,0,.112.256,1.513,1.513,0,0,0,.368.2l.24.106a1.6,1.6,0,0,1,.493.305.572.572,0,0,1,.166.428.61.61,0,0,1-.248.523.989.989,0,0,1-.6.185,1.141,1.141,0,0,1-.978-.528l.185-.174a1.007,1.007,0,0,0,.8.455.675.675,0,0,0,.406-.117.381.381,0,0,0,.163-.332.456.456,0,0,0-.033-.177.34.34,0,0,0-.128-.139,1.632,1.632,0,0,0-.155-.1,2.279,2.279,0,0,0-.207-.1l-.232-.1a1.633,1.633,0,0,1-.468-.272.52.52,0,0,1-.161-.4.58.58,0,0,1,.237-.488.929.929,0,0,1,.572-.2Z" transform="translate(-208.949 -273.291)"/>
      <path id="Path_79" data-name="Path 79" d="M299.239,390.778a1.022,1.022,0,0,1-.022.256H297.09a1.049,1.049,0,0,0,.313.733,1.007,1.007,0,0,0,.733.272,1.07,1.07,0,0,0,.85-.4l.169.174a1.289,1.289,0,0,1-1.024.477,1.339,1.339,0,0,1-.945-2.269,1.217,1.217,0,0,1,.912-.389,1.132,1.132,0,0,1,.817.316A1.089,1.089,0,0,1,299.239,390.778Zm-1.152-.891a.929.929,0,0,0-.659.256,1.035,1.035,0,0,0-.327.651h1.863a.817.817,0,0,0-.242-.659A.877.877,0,0,0,298.087,389.888Z" transform="translate(-215.481 -273.254)"/>
      <path id="Path_80" data-name="Path 80" d="M309.222,389.679a1.215,1.215,0,0,1,1.03.523l-.188.155a1.016,1.016,0,0,0-.842-.428.994.994,0,0,0-.744.311,1.057,1.057,0,0,0-.3.765,1.068,1.068,0,0,0,.3.771.981.981,0,0,0,.741.313,1.027,1.027,0,0,0,.847-.428l.188.153a1.22,1.22,0,0,1-1.035.523,1.252,1.252,0,0,1-.931-.39,1.345,1.345,0,0,1,0-1.882A1.274,1.274,0,0,1,309.222,389.679Z" transform="translate(-223.534 -273.29)"/>
      <path id="Path_81" data-name="Path 81" d="M319.337,390.306a1.636,1.636,0,0,0,.354-.044v.234a1.544,1.544,0,0,1-.395.052.844.844,0,0,1-.572-.185.727.727,0,0,1-.21-.58v-1.6h-.444v-.242h.444v-.724h.272v.724h.817v.242h-.817v1.585C318.784,390.129,318.966,390.306,319.337,390.306Z" transform="translate(-230.919 -271.501)"/>
      <path id="Path_82" data-name="Path 82" d="M327.889,390.778a1.164,1.164,0,0,1-.022.256h-2.13a1.062,1.062,0,0,0,.316.733,1.008,1.008,0,0,0,.733.272,1.07,1.07,0,0,0,.85-.4l.169.174a1.333,1.333,0,1,1-1.972-1.792,1.228,1.228,0,0,1,.915-.389,1.132,1.132,0,0,1,.817.316A1.089,1.089,0,0,1,327.889,390.778Zm-1.152-.891a.929.929,0,0,0-.659.256,1.037,1.037,0,0,0-.33.651h1.866a.817.817,0,0,0-.242-.659A.883.883,0,0,0,326.737,389.888Z" transform="translate(-236.28 -273.254)"/>
      <path id="Path_83" data-name="Path 83" d="M337.269,390.306a1.635,1.635,0,0,0,.354-.044v.234a1.528,1.528,0,0,1-.395.052.845.845,0,0,1-.572-.185.736.736,0,0,1-.21-.58v-1.6H336v-.242h.444v-.724h.272v.724h.817v.242h-.817v1.585a.479.479,0,0,0,.553.534Z" transform="translate(-243.936 -271.501)"/>
      <path id="Path_84" data-name="Path 84" d="M346.208,389.88v1.585a.986.986,0,0,1-.272.738,1.054,1.054,0,0,1-1.433,0,.986.986,0,0,1-.286-.738V389.88h.272v1.6a.733.733,0,0,0,.212.545.771.771,0,0,0,1.051,0,.733.733,0,0,0,.212-.545v-1.6Z" transform="translate(-249.9 -273.437)"/>
      <path id="Path_85" data-name="Path 85" d="M356.709,390.778a1.017,1.017,0,0,1-.022.256H354.56a1.048,1.048,0,0,0,.313.733,1.008,1.008,0,0,0,.733.272,1.07,1.07,0,0,0,.85-.4l.169.174a1.286,1.286,0,0,1-1.024.477,1.339,1.339,0,0,1-.945-2.269,1.217,1.217,0,0,1,.912-.389,1.132,1.132,0,0,1,.817.316A1.089,1.089,0,0,1,356.709,390.778Zm-1.144-.891a.929.929,0,0,0-.659.256,1.048,1.048,0,0,0-.327.651h1.863a.817.817,0,0,0-.242-.659A.877.877,0,0,0,355.565,389.888Z" transform="translate(-257.203 -273.254)"/>
      <path id="Path_86" data-name="Path 86" d="M367.139,389.816l.163.016v.232h-.133a.9.9,0,0,0-.6.223.741.741,0,0,0-.272.6v1.5h-.272v-2.552h.267v.428A.942.942,0,0,1,367.139,389.816Z" transform="translate(-265.732 -273.389)"/>
      <path id="Path_87" data-name="Path 87" d="M378.542,389.677a.948.948,0,0,1,.695.259,1.008,1.008,0,0,1,.272.746v1.6h-.272v-.4a1.152,1.152,0,0,1-1.536.272.635.635,0,0,1,0-1.005,1.022,1.022,0,0,1,.646-.185h.891v-.291a.763.763,0,0,0-.191-.545.7.7,0,0,0-.512-.188.97.97,0,0,0-.779.428l-.183-.15A1.139,1.139,0,0,1,378.542,389.677Zm-.185,2.427a.9.9,0,0,0,.616-.223.7.7,0,0,0,.272-.545v-.144h-.863a.816.816,0,0,0-.474.114.371.371,0,0,0-.163.324.4.4,0,0,0,.185.354A.776.776,0,0,0,378.356,392.1Z" transform="translate(-274.029 -273.289)"/>
      <path id="Path_88" data-name="Path 88" d="M389.972,384.7h.272v3.963h-.253v-.512a1.04,1.04,0,0,1-.428.411,1.281,1.281,0,0,1-.616.152,1.193,1.193,0,0,1-.921-.392,1.405,1.405,0,0,1,0-1.887,1.19,1.19,0,0,1,.9-.387,1.275,1.275,0,0,1,.607.147,1.051,1.051,0,0,1,.425.4Zm-1.005,3.767a1.008,1.008,0,0,0,.711-.272,1.043,1.043,0,0,0,.294-.8,1.059,1.059,0,0,0-.294-.817,1,1,0,0,0-.711-.272.948.948,0,0,0-.73.308,1.174,1.174,0,0,0,0,1.542A.95.95,0,0,0,388.967,388.467Z" transform="translate(-281.44 -269.667)"/>
      <path id="Path_89" data-name="Path 89" d="M400.415,385.487a.215.215,0,0,1,.166-.068.221.221,0,0,1,.166.068.237.237,0,0,1,0,.327.221.221,0,0,1-.166.068.216.216,0,0,1-.166-.068A.237.237,0,0,1,400.415,385.487Zm.3,1.147v2.552h-.272v-2.552Z" transform="translate(-290.659 -270.191)"/>
      <path id="Path_90" data-name="Path 90" d="M406.522,389.679a1.2,1.2,0,0,1,.9.384,1.4,1.4,0,0,1,0,1.887,1.188,1.188,0,0,1-.9.387,1.316,1.316,0,0,1-.6-.144,1.048,1.048,0,0,1-.428-.4v1.444h-.272v-3.5h.253v.512a1.032,1.032,0,0,1,.425-.411A1.266,1.266,0,0,1,406.522,389.679Zm-.024,2.41a.951.951,0,0,0,.73-.31,1.074,1.074,0,0,0,.289-.768,1.09,1.09,0,0,0-.289-.773.948.948,0,0,0-.706-.308,1,1,0,0,0-.711.272,1.253,1.253,0,0,0,0,1.612,1.008,1.008,0,0,0,.711.275Z" transform="translate(-294.186 -273.29)"/>
      <path id="Path_91" data-name="Path 91" d="M417.285,385.488a.221.221,0,0,1,.166-.068.226.226,0,0,1,.169.068.237.237,0,0,1,0,.327.226.226,0,0,1-.169.068.221.221,0,0,1-.166-.068A.237.237,0,0,1,417.285,385.488Zm.3,1.147v2.552h-.272v-2.552Z" transform="translate(-302.907 -270.191)"/>
      <path id="Path_92" data-name="Path 92" d="M422.219,389.679a1,1,0,0,1,.817.409l-.174.169a.871.871,0,0,0-.665-.327.632.632,0,0,0-.37.1.341.341,0,0,0-.15.3.319.319,0,0,0,.112.256,1.544,1.544,0,0,0,.37.2l.237.106a1.617,1.617,0,0,1,.5.305.583.583,0,0,1,.166.428.613.613,0,0,1-.251.523.978.978,0,0,1-.6.185,1.138,1.138,0,0,1-.975-.528l.182-.174a1.016,1.016,0,0,0,.8.455.678.678,0,0,0,.409-.117.381.381,0,0,0,.163-.332.412.412,0,0,0-.035-.177.332.332,0,0,0-.125-.139,1.354,1.354,0,0,0-.158-.1,1.88,1.88,0,0,0-.207-.1l-.234-.1a1.576,1.576,0,0,1-.466-.272.512.512,0,0,1-.161-.4.58.58,0,0,1,.237-.488A.926.926,0,0,1,422.219,389.679Z" transform="translate(-305.812 -273.29)"/>
      <path id="Path_93" data-name="Path 93" d="M431.577,389.679a1.223,1.223,0,0,1,1.032.523l-.191.155a1.011,1.011,0,0,0-.842-.428,1,1,0,0,0-.744.311,1.056,1.056,0,0,0-.3.765,1.068,1.068,0,0,0,.3.771.98.98,0,0,0,.741.313,1.027,1.027,0,0,0,.847-.428l.191.153a1.226,1.226,0,0,1-1.038.523,1.253,1.253,0,0,1-.931-.39,1.329,1.329,0,0,1,.937-2.269Z" transform="translate(-312.359 -273.29)"/>
      <path id="Path_94" data-name="Path 94" d="M441.4,385.488a.22.22,0,0,1,.166-.068.215.215,0,0,1,.166.068.231.231,0,0,1,0,.327.215.215,0,0,1-.166.068.221.221,0,0,1-.166-.068.237.237,0,0,1,0-.327Zm.3,1.147v2.552h-.272v-2.552Z" transform="translate(-320.411 -270.191)"/>
      <path id="Path_95" data-name="Path 95" d="M447.308,389.675a.885.885,0,0,1,.689.272,1.043,1.043,0,0,1,.248.719v1.612h-.272v-1.6a.787.787,0,0,0-.193-.545.664.664,0,0,0-.52-.21.736.736,0,0,0-.545.215.746.746,0,0,0-.212.545v1.6h-.272v-2.552h.253v.343a.932.932,0,0,1,.825-.4Z" transform="translate(-323.961 -273.286)"/>
      <path id="Path_96" data-name="Path 96" d="M458.863,389.719h.256v2.323a1.152,1.152,0,0,1-1.22,1.231,1.634,1.634,0,0,1-.667-.136,1.52,1.52,0,0,1-.507-.36l.163-.18a1.362,1.362,0,0,0,1.005.428.967.967,0,0,0,.7-.253.956.956,0,0,0,.272-.719v-.332a1.038,1.038,0,0,1-.43.392,1.276,1.276,0,0,1-.607.147,1.193,1.193,0,0,1-.9-.376,1.362,1.362,0,0,1,0-1.847,1.2,1.2,0,0,1,.9-.379,1.264,1.264,0,0,1,.618.155,1.007,1.007,0,0,1,.428.411Zm-1.008,2.293a1.049,1.049,0,1,0-.735-1.8,1.043,1.043,0,0,0-.289.752,1.03,1.03,0,0,0,.289.746.983.983,0,0,0,.727.3Z" transform="translate(-331.298 -273.276)"/>
      <path id="Path_97" data-name="Path 97" d="M476.659,390.778a1.162,1.162,0,0,1-.022.256h-2.13a1.062,1.062,0,0,0,.316.733,1.007,1.007,0,0,0,.733.272,1.07,1.07,0,0,0,.85-.4l.169.174a1.333,1.333,0,1,1-1.972-1.792,1.228,1.228,0,0,1,.915-.389,1.133,1.133,0,0,1,.817.316A1.089,1.089,0,0,1,476.659,390.778Zm-1.152-.891a.929.929,0,0,0-.659.256,1.038,1.038,0,0,0-.33.651h1.866a.817.817,0,0,0-.242-.659A.883.883,0,0,0,475.507,389.888Z" transform="translate(-344.151 -273.254)"/>
      <path id="Path_98" data-name="Path 98" d="M486.272,384.7v3.963H486V384.7Z" transform="translate(-352.716 -269.667)"/>
      <path id="Path_99" data-name="Path 99" d="M490.315,385.488a.221.221,0,0,1,.166-.068.215.215,0,0,1,.166.068.237.237,0,0,1,0,.327.215.215,0,0,1-.166.068.221.221,0,0,1-.166-.068A.237.237,0,0,1,490.315,385.488Zm.3,1.147v2.552h-.272v-2.552Z" transform="translate(-355.808 -270.191)"/>
      <path id="Path_100" data-name="Path 100" d="M495.2,390.306a1.636,1.636,0,0,0,.354-.044v.234a1.548,1.548,0,0,1-.4.052.836.836,0,0,1-.569-.185.727.727,0,0,1-.212-.58v-1.6h-.444v-.242h.444v-.724h.272v.724h.817v.242h-.817v1.585C494.644,390.129,494.829,390.306,495.2,390.306Z" transform="translate(-358.486 -271.501)"/>
      <path id="Path_101" data-name="Path 101" d="M502.689,397.79l-.191,1.348h-.229l.09-1.348Z" transform="translate(-364.554 -279.192)"/>
      <path id="Path_102" data-name="Path 102" d="M512.981,389.68a.991.991,0,0,1,.817.409l-.174.169a.869.869,0,0,0-.664-.327.637.637,0,0,0-.37.1.346.346,0,0,0-.147.3.319.319,0,0,0,.112.256,1.516,1.516,0,0,0,.368.2l.24.106a1.6,1.6,0,0,1,.493.305.572.572,0,0,1,.166.428.61.61,0,0,1-.248.523.984.984,0,0,1-.6.185,1.144,1.144,0,0,1-.969-.528l.185-.174a1.01,1.01,0,0,0,.8.455.675.675,0,0,0,.406-.117.382.382,0,0,0,.163-.332.454.454,0,0,0-.033-.177.339.339,0,0,0-.128-.139,1.361,1.361,0,0,0-.155-.1c-.044-.024-.112-.057-.207-.1l-.232-.1a1.632,1.632,0,0,1-.468-.272.52.52,0,0,1-.161-.4.58.58,0,0,1,.237-.488A.934.934,0,0,1,512.981,389.68Z" transform="translate(-371.634 -273.291)"/>
      <path id="Path_103" data-name="Path 103" d="M523.409,390.778a1.017,1.017,0,0,1-.022.256H521.25a1.049,1.049,0,0,0,.313.733,1.008,1.008,0,0,0,.733.272,1.07,1.07,0,0,0,.85-.4l.169.174a1.286,1.286,0,0,1-1.024.477,1.339,1.339,0,0,1-.945-2.269,1.22,1.22,0,0,1,.912-.39,1.133,1.133,0,0,1,.817.316A1.089,1.089,0,0,1,523.409,390.778Zm-1.152-.891a.929.929,0,0,0-.659.256,1.048,1.048,0,0,0-.327.651h1.863a.817.817,0,0,0-.242-.659A.877.877,0,0,0,522.257,389.887Z" transform="translate(-378.16 -273.253)"/>
      <path id="Path_104" data-name="Path 104" d="M534.419,384.7h.272v3.963h-.253v-.512a1.048,1.048,0,0,1-.425.411,1.288,1.288,0,0,1-.616.153,1.2,1.2,0,0,1-.9-.384,1.313,1.313,0,0,1-.365-.942,1.334,1.334,0,0,1,.362-.945,1.2,1.2,0,0,1,.907-.387,1.273,1.273,0,0,1,.6.147,1.018,1.018,0,0,1,.425.4Zm-1,3.767a1.008,1.008,0,0,0,.711-.272,1.051,1.051,0,0,0,.291-.8,1.067,1.067,0,0,0-.291-.817,1,1,0,0,0-.711-.272.95.95,0,0,0-.733.308,1.174,1.174,0,0,0,0,1.542A.953.953,0,0,0,533.417,388.467Z" transform="translate(-386.28 -269.667)"/>
      <path id="Path_105" data-name="Path 105" d="M546.063,389.88h.272l-1.163,2.6h-.112l-1.171-2.6h.272l.942,2.149Z" transform="translate(-394.838 -273.437)"/>
    </g>
  </g>
</svg>
