<svg xmlns="http://www.w3.org/2000/svg" xmlns:xlink="http://www.w3.org/1999/xlink" width="165" height="125" viewBox="0 0 165 125">
  <defs>
    <linearGradient id="linear-gradient" y1="0.5" x2="1" y2="0.5" gradientUnits="objectBoundingBox">
      <stop offset="0" stop-color="#ff512f"/>
      <stop offset="0.37" stop-color="#f03d4f"/>
      <stop offset="0.77" stop-color="#e22b6b"/>
      <stop offset="1" stop-color="#dd2476"/>
    </linearGradient>
    <linearGradient id="linear-gradient-2" x1="0.999" y1="0.548" x2="-0.913" y2="0.366" xlink:href="#linear-gradient"/>
    <linearGradient id="linear-gradient-3" x1="0" y1="0.5" x2="1.002" y2="0.5" xlink:href="#linear-gradient"/>
    <linearGradient id="linear-gradient-4" x1="0.095" y1="0.227" x2="0.929" y2="0.827" xlink:href="#linear-gradient"/>
  </defs>
  <g id="Layer_2" data-name="Layer 2" transform="translate(0.002 4.004)">
    <g id="Layer_2-2" data-name="Layer 2" transform="translate(-0.002 -4.004)">
      <path id="Path_270" data-name="Path 270" d="M26.632,275.795H6.341a1.273,1.273,0,0,1,0-2.34h8.716a.962.962,0,0,0,0-1.777H2.845a1.124,1.124,0,0,1-.83-.95,1.139,1.139,0,0,1,.83-1.2H4.861a1.222,1.222,0,0,0,.473-.83,1.286,1.286,0,0,0-.473-1.067H.768a1.166,1.166,0,0,1,0-2.193h15.3a1.438,1.438,0,0,1,.644,1.007.779.779,0,0,1,0,.12,1.42,1.42,0,0,1-.653,1.177H13.448a1.136,1.136,0,0,0-.533.839,1.076,1.076,0,0,0,.533,1.007H25.79a1.127,1.127,0,0,1,0,2.136H23.129a1.2,1.2,0,0,0-.482.9,1.246,1.246,0,0,0,.482,1.01h3.5a1.148,1.148,0,0,1,0,2.16Z" transform="translate(0.002 -184.163)" fill="url(#linear-gradient)"/>
      <path id="Path_271" data-name="Path 271" d="M94.367,279.9a1.223,1.223,0,0,0-.6.947,1.169,1.169,0,0,0,.6,1.067h3.1a1.231,1.231,0,0,0,.572-.947,1.2,1.2,0,0,0-.572-1.067Z" transform="translate(-65.672 -194.323)" fill="url(#linear-gradient-2)"/>
      <path id="Path_272" data-name="Path 272" d="M42.991,306.21H48.6a1.171,1.171,0,0,1,.779.95,1.2,1.2,0,0,1-.791,1.225h-5.6a1.219,1.219,0,0,1-.713-1.225A1.294,1.294,0,0,1,42.991,306.21Z" transform="translate(-29.606 -212.586)" fill="url(#linear-gradient-3)"/>
      <path id="Path_273" data-name="Path 273" d="M19.534,182.349A15.326,15.326,0,0,0,4.11,197.675a14.981,14.981,0,0,0,.1,1.729,14.717,14.717,0,0,0,.512,2.559,9.162,9.162,0,0,0,2.052,3.652l.168.186a.6.6,0,0,0,.455.2l5.342-.051,5.693-.057a2.849,2.849,0,0,1,2.52,1.417,2.55,2.55,0,0,1,.3.794,1.57,1.57,0,0,1-.126.983c-.422.8-1.648.881-1.78.9h8.419L32,205.753a8.045,8.045,0,0,0,1.912-3.014,15.723,15.723,0,0,0,.473-1.645,15.31,15.31,0,0,0,.378-3.056V197.7A15.368,15.368,0,0,0,19.534,182.349ZM12.224,199.26a7.53,7.53,0,0,1-.15-2.136A7.381,7.381,0,1,1,26,201.043l-2.553-3.73a.6.6,0,0,0-.941-.048l-2.253,2.658-3-4.926a.6.6,0,0,0-.938-.1Zm7.212,5.795a7.383,7.383,0,0,1-6.451-3.787l3.527-3.814L20,203.188l2.888-3.518,2.043,2.948a7.38,7.38,0,0,1-5.5,2.436Z" transform="translate(-2.878 -126.296)" fill="url(#linear-gradient-4)"/>
      <path id="Path_274" data-name="Path 274" d="M43.635,234.977l2.04,2.93a7.383,7.383,0,0,1-11.946-1.336l3.524-3.811,3.494,5.735Z" transform="translate(-23.623 -161.526)" fill="none"/>
      <path id="Path_275" data-name="Path 275" d="M45.385,216.151a7.329,7.329,0,0,1-.812,3.371l-2.553-3.733a.6.6,0,0,0-.941-.048L38.826,218.4l-3-4.926a.6.6,0,0,0-.941-.1l-4.1,4.365a7.542,7.542,0,0,1-.15-2.139,7.38,7.38,0,0,1,14.741.551Z" transform="translate(-21.447 -144.814)" fill="none"/>
      <path id="Path_276" data-name="Path 276" d="M15.042,19.38a13.194,13.194,0,0,1,8.932,3.026,10.107,10.107,0,0,1,3.515,8.051,10.18,10.18,0,0,1-3.539,8.03,13.012,13.012,0,0,1-8.908,3.1H10.8v10H2.41V19.38Zm.051,7.32H10.8v7.565h4.294a3.79,3.79,0,0,0,2.8-1.049,3.73,3.73,0,0,0,1.049-2.76A3.64,3.64,0,0,0,17.9,27.724a3.838,3.838,0,0,0-2.8-1.025Z" transform="translate(-1.687 -13.572)" fill="#515151"/>
      <path id="Path_277" data-name="Path 277" d="M113.433,44.134a6.948,6.948,0,0,1,2.4.39v7.419h-2.013a6.091,6.091,0,0,0-4.344,1.39,5.911,5.911,0,0,0-1.462,4.464V68.925H99.62v-24.4h7.661V47.11a7.458,7.458,0,0,1,6.151-2.975Z" transform="translate(-69.661 -30.908)" fill="#515151"/>
      <path id="Path_278" data-name="Path 278" d="M173.157,43.484a13.237,13.237,0,0,1,9.417,3.682,12.58,12.58,0,0,1,0,18.2,13.878,13.878,0,0,1-18.837,0,12.675,12.675,0,0,1,0-18.2A13.146,13.146,0,0,1,173.157,43.484Zm.048,7.709a4.449,4.449,0,0,0-3.4,1.414,5.773,5.773,0,0,0,0,7.344,4.494,4.494,0,0,0,3.416,1.393,4.422,4.422,0,0,0,3.344-1.417,5.651,5.651,0,0,0-.015-7.3A4.389,4.389,0,0,0,173.2,51.194Z" transform="translate(-111.787 -30.453)" fill="#515151"/>
      <path id="Path_279" data-name="Path 279" d="M257.436,13.612V37.474q0,4.881-2.7,7.395T247.2,47.382a12.284,12.284,0,0,1-4.051-.6V39.769q1.465.093,1.9.1a4.9,4.9,0,0,0,3.074-.755,3,3,0,0,0,.929-2.463V13.612Zm-7.88-12.177A5.031,5.031,0,0,1,253.19,0a5.124,5.124,0,0,1,3.661,1.438,4.707,4.707,0,0,1,1.513,3.539,4.647,4.647,0,0,1-1.513,3.491A5.124,5.124,0,0,1,253.19,9.9a5.073,5.073,0,0,1-3.634-1.414,4.647,4.647,0,0,1-1.5-3.515,4.731,4.731,0,0,1,1.5-3.539Z" transform="translate(-170.03 0.004)" fill="#515151"/>
      <path id="Path_280" data-name="Path 280" d="M329.692,55.055a15.508,15.508,0,0,1-.536,4.147H313.539q1.366,2.78,5.465,2.78a12.132,12.132,0,0,0,6.394-1.9l3.026,5.711a15.766,15.766,0,0,1-9.711,3.269,13.815,13.815,0,0,1-9.858-3.634A12,12,0,0,1,305,56.275a12.251,12.251,0,0,1,3.757-9.1,12.7,12.7,0,0,1,9.273-3.682,11.142,11.142,0,0,1,8.467,3.365A11.436,11.436,0,0,1,329.692,55.055Zm-12-4.98a4.288,4.288,0,0,0-2.757.953,5.048,5.048,0,0,0-1.684,2.7h8.491a3.47,3.47,0,0,0-1.222-2.661,4.213,4.213,0,0,0-2.828-.989Z" transform="translate(-213.258 -30.458)" fill="#515151"/>
      <path id="Path_281" data-name="Path 281" d="M410.855,43.483a12.234,12.234,0,0,1,6.592,1.756,11.652,11.652,0,0,1,4.344,4.794l-5.822,4.428q-2.1-3.266-5.025-3.269a4.576,4.576,0,0,0-3.515,1.414,5.739,5.739,0,0,0,0,7.32,4.585,4.585,0,0,0,3.515,1.417q2.924,0,5.025-3.221l5.81,4.389a11.653,11.653,0,0,1-4.332,4.794,12.234,12.234,0,0,1-6.592,1.756,13.18,13.18,0,0,1-9.465-3.685,12.668,12.668,0,0,1,0-18.2A13.159,13.159,0,0,1,410.855,43.483Z" transform="translate(-277.876 -30.451)" fill="#515151"/>
      <path id="Path_282" data-name="Path 282" d="M500.449,49.226q.44,0,3.074-.1v7.029a21.091,21.091,0,0,1-4.929.6q-5.171,0-7.952-2.49t-2.784-7.416V38.781H484.15V31.755h3.709V25.9h8.389v5.855h6.538v7.026h-6.532V46a2.941,2.941,0,0,0,.95,2.487A5.473,5.473,0,0,0,500.449,49.226Z" transform="translate(-338.542 -18.139)" fill="#515151"/>
      <path id="Path_283" data-name="Path 283" d="M159.528,198.41h9.516L154.4,231.2h-2.7L137.08,198.41H146.6l6.49,15.811Z" transform="translate(-95.838 -137.331)" fill="#515151"/>
      <path id="Path_284" data-name="Path 284" d="M252.636,222.5a13.231,13.231,0,0,1,9.417,3.685,12.56,12.56,0,0,1,0,18.2,13.886,13.886,0,0,1-18.837,0,12.668,12.668,0,0,1,0-18.2A13.124,13.124,0,0,1,252.636,222.5Zm.048,7.709a4.452,4.452,0,0,0-3.416,1.417,5.773,5.773,0,0,0,0,7.344,4.494,4.494,0,0,0,3.416,1.39,4.41,4.41,0,0,0,3.347-1.414,5.628,5.628,0,0,0,0-7.3,4.381,4.381,0,0,0-3.347-1.441Z" transform="translate(-167.358 -154.143)" fill="#515151"/>
      <path id="Path_285" data-name="Path 285" d="M350.7,183.75v36.6H342.31v-36.6Z" transform="translate(-239.387 -127.117)" fill="#515151"/>
      <path id="Path_286" data-name="Path 286" d="M397.753,222.5a13.222,13.222,0,0,1,9.417,3.685,12.56,12.56,0,0,1,0,18.2,13.883,13.883,0,0,1-18.834,0,12.668,12.668,0,0,1,0-18.2A13.113,13.113,0,0,1,397.753,222.5Zm.048,7.709a4.453,4.453,0,0,0-3.416,1.417,5.773,5.773,0,0,0,0,7.344,4.494,4.494,0,0,0,3.416,1.39,4.419,4.419,0,0,0,3.344-1.414,5.627,5.627,0,0,0,0-7.3A4.393,4.393,0,0,0,397.8,230.213Z" transform="translate(-268.735 -154.143)" fill="#515151"/>
      <path id="Path_287" data-name="Path 287" d="M491.123,222.35a12.121,12.121,0,0,1,9.174,3.61l-3.952,5.124a7.959,7.959,0,0,0-5.174-2.1q-1.708,0-1.708.926a.83.83,0,0,0,.2.536,1.36,1.36,0,0,0,.512.392c.21.1.527.228.95.389l2.439.977a17.015,17.015,0,0,1,5.393,3.122,5.985,5.985,0,0,1,1.732,4.539,7.073,7.073,0,0,1-2.828,5.93,11.587,11.587,0,0,1-7.272,2.169q-6.93,0-10.487-4.683l3.9-4.977a9.555,9.555,0,0,0,6.735,3.023c1.432,0,2.145-.357,2.145-1.073q0-.635-1.414-1.219l-2.733-1.124a15.732,15.732,0,0,1-5.342-3.221,6.353,6.353,0,0,1-1.735-4.635,6.845,6.845,0,0,1,2.589-5.66A10.657,10.657,0,0,1,491.123,222.35Z" transform="translate(-335.705 -154.036)" fill="#515151"/>
      <line id="Line_7" data-name="Line 7" x2="164.283" y2="0.054" transform="translate(0.717 109.771)" fill="none" stroke="#f9493a" stroke-miterlimit="10" stroke-width="2"/>
      <text id="Ό_τι_ψάχνεις_στην_πόλη_σου." data-name="Ό,τι ψάχνεις, στην πόλη σου." transform="translate(83.454 123)" fill="#5b5b5b" font-size="11" font-family="CeraGR-Light, CeraGR ☞" font-weight="300" letter-spacing="0.055em"><tspan x="-80.564" y="0">Ό,τι ψάχνεις, στην πόλη σου.</tspan></text>
    </g>
  </g>
</svg>
