<svg xmlns="http://www.w3.org/2000/svg" xmlns:xlink="http://www.w3.org/1999/xlink" width="123.352" height="153.785" viewBox="0 0 123.352 153.785">
  <defs>
    <linearGradient id="linear-gradient" y1="0.5" x2="1" y2="0.5" gradientUnits="objectBoundingBox">
      <stop offset="0" stop-color="#ff512f"/>
      <stop offset="0.37" stop-color="#f03d4f"/>
      <stop offset="0.77" stop-color="#e22b6b"/>
      <stop offset="1" stop-color="#dd2476"/>
    </linearGradient>
    <linearGradient id="linear-gradient-2" x1="0" y1="0.5" x2="1.002" y2="0.5" xlink:href="#linear-gradient"/>
    <linearGradient id="linear-gradient-3" x1="0.095" y1="0.227" x2="0.929" y2="0.827" xlink:href="#linear-gradient"/>
  </defs>
  <g id="Group_5" data-name="Group 5" transform="translate(-46 -87.054)">
    <path id="Path_288" data-name="Path 288" d="M103.05,305.505H24.543a4.927,4.927,0,0,1,0-9.054H58.267a3.721,3.721,0,0,0,0-6.875H11.014A4.347,4.347,0,0,1,7.8,285.9a4.405,4.405,0,0,1,3.211-4.637h7.8a4.73,4.73,0,0,0,1.832-3.211,4.974,4.974,0,0,0-1.832-4.127H2.98a4.51,4.51,0,0,1,0-8.486H62.162a5.564,5.564,0,0,1,2.492,3.9,3.013,3.013,0,0,1,0,.464,5.5,5.5,0,0,1-2.527,4.556H52.041a4.394,4.394,0,0,0-2.064,3.246,4.162,4.162,0,0,0,2.064,3.9H99.793a4.359,4.359,0,0,1,0,8.266H89.5a4.637,4.637,0,0,0-1.866,3.478,4.823,4.823,0,0,0,1.866,3.907H103.05a4.44,4.44,0,0,1,0,8.359Z" transform="translate(46.002 -80.791)" fill="url(#linear-gradient)"/>
    <path id="Path_289" data-name="Path 289" d="M45.052,306.21H66.766a4.533,4.533,0,0,1,3.014,3.675,4.637,4.637,0,0,1-3.061,4.741H45.052a4.718,4.718,0,0,1-2.759-4.741A5.008,5.008,0,0,1,45.052,306.21Z" transform="translate(52.736 -73.788)" fill="url(#linear-gradient-2)"/>
    <path id="Path_290" data-name="Path 290" d="M63.791,182.35a59.3,59.3,0,0,0-59.681,59.3,57.963,57.963,0,0,0,.383,6.689,56.945,56.945,0,0,0,1.982,9.9,35.45,35.45,0,0,0,7.941,14.132l.649.719a2.318,2.318,0,0,0,1.762.765l20.67-.2,22.027-.22a11.025,11.025,0,0,1,9.75,5.483,9.865,9.865,0,0,1,1.159,3.072,6.075,6.075,0,0,1-.487,3.8c-1.635,3.1-6.376,3.408-6.886,3.478H95.637L112.006,272.9a31.128,31.128,0,0,0,7.4-11.663,60.837,60.837,0,0,0,1.832-6.365,59.239,59.239,0,0,0,1.461-11.825V241.73A59.46,59.46,0,0,0,63.791,182.35ZM35.5,247.781a29.134,29.134,0,0,1-.58-8.266,28.559,28.559,0,1,1,53.9,15.164l-9.877-14.433a2.319,2.319,0,0,0-3.64-.185l-8.718,10.283L54.992,231.284a2.319,2.319,0,0,0-3.629-.394Zm27.9,22.421a28.565,28.565,0,0,1-24.96-14.654l13.645-14.758L65.6,262.979l11.176-13.61,7.906,11.408A28.553,28.553,0,0,1,63.408,270.2Z" transform="translate(46.657 -95.295)" fill="url(#linear-gradient-3)"/>
    <path id="Path_291" data-name="Path 291" d="M72.056,241.339l7.895,11.338a28.565,28.565,0,0,1-46.221-5.17L47.363,232.76l13.517,22.189Z" transform="translate(51.375 -86.969)" fill="none"/>
    <path id="Path_292" data-name="Path 292" d="M87.738,237.434A28.357,28.357,0,0,1,84.6,250.476l-9.877-14.445a2.319,2.319,0,0,0-3.64-.185L62.361,246.14,50.768,227.081a2.319,2.319,0,0,0-3.64-.394L31.28,243.578a29.18,29.18,0,0,1-.58-8.277,28.554,28.554,0,0,1,57.038,2.133Z" transform="translate(50.881 -91.245)" fill="none"/>
  </g>
</svg>
